<?xml version="1.0" standalone="no"?>
<!DOCTYPE svg PUBLIC "-//W3C//DTD SVG 20010904//EN"
 "http://www.w3.org/TR/2001/REC-SVG-20010904/DTD/svg10.dtd">
<svg version="1.0" xmlns="http://www.w3.org/2000/svg"
 width="800.000000pt" height="600.000000pt" viewBox="0 0 800.000000 600.000000"
 preserveAspectRatio="xMidYMid meet">

<g transform="translate(0.000000,600.000000) scale(0.100000,-0.100000)"
fill="#000000" stroke="none">
<path d="M5119 4836 c-2 -2 -353 -6 -779 -10 -426 -3 -836 -11 -910 -16 -507
-39 -874 -168 -1177 -412 -99 -80 -113 -100 -113 -160 0 -41 5 -54 29 -78 59
-60 120 -52 211 26 303 259 651 368 1240 388 290 10 751 16 1730 21 525 3 980
8 1010 11 67 7 86 16 110 57 24 38 25 78 5 117 -33 63 4 60 -706 60 -355 0
-648 -2 -650 -4z"/>
<path d="M7499 4784 c-386 -263 -676 -544 -837 -815 -44 -73 -152 -306 -152
-327 0 -4 -22 -63 -49 -132 -27 -69 -68 -179 -91 -245 -51 -148 -113 -290
-161 -370 -19 -33 -57 -99 -83 -147 -53 -99 -184 -282 -291 -408 -176 -206
-405 -398 -584 -490 -103 -52 -359 -140 -408 -140 -7 0 22 42 65 93 208 248
411 572 517 827 15 36 37 88 50 115 28 62 96 291 121 405 27 121 27 419 0 540
-54 249 -184 495 -360 684 -49 53 -55 56 -98 56 -69 0 -103 -32 -103 -97 0
-39 6 -56 32 -88 47 -59 166 -273 207 -372 62 -148 76 -217 76 -386 0 -172
-18 -311 -62 -482 -56 -219 -124 -371 -292 -650 -149 -250 -288 -430 -511
-663 -108 -114 -115 -124 -115 -162 0 -85 45 -116 154 -106 148 14 348 47 442
75 117 34 309 108 415 161 224 113 478 328 673 572 194 241 414 634 542 963
168 435 282 647 481 895 112 140 405 426 520 508 81 57 104 79 113 107 14 44
1 85 -38 115 -43 34 -82 26 -173 -36z"/>
<path d="M3485 4423 c-339 -42 -563 -106 -811 -231 -328 -165 -653 -486 -891
-879 -82 -135 -257 -459 -268 -494 -4 -13 -43 -115 -87 -226 -137 -350 -272
-598 -438 -808 -95 -120 -412 -437 -503 -502 -122 -88 -146 -111 -153 -148
-12 -66 54 -134 118 -121 16 3 84 44 150 92 510 362 773 667 923 1069 122 328
130 343 218 433 71 72 96 90 185 133 56 27 144 64 195 82 84 29 103 31 219 32
69 0 130 -3 134 -7 4 -4 -3 -56 -15 -116 -38 -194 -44 -324 -20 -492 21 -152
80 -331 150 -457 48 -84 166 -247 224 -310 46 -48 55 -53 94 -53 53 0 77 12
97 52 22 42 13 86 -28 140 -48 62 -154 254 -200 359 -63 148 -78 222 -78 392
0 376 103 722 318 1072 30 50 74 122 96 160 80 138 273 379 468 582 92 95 98
104 98 143 0 92 -54 121 -195 103z m-351 -385 c-102 -123 -200 -257 -289 -398
-73 -117 -199 -361 -236 -457 l-24 -63 -131 0 c-200 0 -380 -38 -528 -112 -32
-16 -60 -27 -62 -25 -5 5 88 176 128 236 99 146 230 303 358 432 206 207 357
314 556 396 89 37 264 91 296 92 12 1 -10 -32 -68 -101z"/>
<path d="M4436 4299 c-87 -13 -213 -54 -302 -98 -271 -136 -577 -427 -817
-777 -241 -351 -358 -715 -344 -1077 6 -165 20 -229 79 -345 48 -97 123 -177
235 -252 251 -168 575 -160 938 23 245 124 472 347 449 443 -10 41 -23 54 -53
54 -26 0 -54 -17 -241 -145 -47 -32 -134 -82 -195 -111 -341 -162 -599 -163
-771 -2 -108 102 -155 225 -155 410 1 389 249 901 615 1263 247 245 478 382
649 386 148 3 183 -82 133 -321 -31 -151 -33 -213 -7 -257 28 -45 69 -51 134
-19 57 27 120 84 142 126 24 47 37 156 33 283 -3 112 -6 127 -34 187 -89 186
-253 263 -488 229z"/>
<path d="M5840 1729 c-19 -12 -59 -43 -90 -69 -173 -148 -416 -260 -675 -310
-287 -55 -583 -65 -2290 -75 -894 -6 -1024 -8 -1053 -22 -82 -39 -82 -167 0
-209 29 -15 144 -15 1449 -5 780 6 1478 16 1551 21 274 21 534 75 723 150 178
70 386 197 499 303 63 59 66 64 66 108 0 52 -23 90 -70 114 -40 20 -69 19
-110 -6z"/>
</g>
</svg>
